<region> lovel=1 hivel=3 amp_velcurve_3=1 sample=../samples/_nsmr/pre_roll/kd14bop/snare_off/cls/kd14bop_p45_cls_001.wav
<region> lovel=4 hivel=6 amp_velcurve_6=1 sample=../samples/_nsmr/pre_roll/kd14bop/snare_off/cls/kd14bop_p45_cls_002.wav
<region> lovel=7 hivel=9 amp_velcurve_9=1 sample=../samples/_nsmr/pre_roll/kd14bop/snare_off/cls/kd14bop_p45_cls_003.wav
<region> lovel=10 hivel=12 amp_velcurve_12=1 sample=../samples/_nsmr/pre_roll/kd14bop/snare_off/cls/kd14bop_p45_cls_004.wav
<region> lovel=13 hivel=15 amp_velcurve_15=1 sample=../samples/_nsmr/pre_roll/kd14bop/snare_off/cls/kd14bop_p45_cls_005.wav
<region> lovel=16 hivel=18 amp_velcurve_18=1 sample=../samples/_nsmr/pre_roll/kd14bop/snare_off/cls/kd14bop_p45_cls_006.wav
<region> lovel=19 hivel=21 amp_velcurve_21=1 sample=../samples/_nsmr/pre_roll/kd14bop/snare_off/cls/kd14bop_p45_cls_007.wav
<region> lovel=22 hivel=24 amp_velcurve_24=1 sample=../samples/_nsmr/pre_roll/kd14bop/snare_off/cls/kd14bop_p45_cls_009.wav
<region> lovel=25 hivel=27 amp_velcurve_27=1 sample=../samples/_nsmr/pre_roll/kd14bop/snare_off/cls/kd14bop_p45_cls_010.wav
<region> lovel=28 hivel=30 amp_velcurve_30=1 sample=../samples/_nsmr/pre_roll/kd14bop/snare_off/cls/kd14bop_p45_cls_011.wav
<region> lovel=31 hivel=33 amp_velcurve_33=1 sample=../samples/_nsmr/pre_roll/kd14bop/snare_off/cls/kd14bop_p45_cls_012.wav
<region> lovel=34 hivel=36 amp_velcurve_36=1 sample=../samples/_nsmr/pre_roll/kd14bop/snare_off/cls/kd14bop_p45_cls_013.wav
<region> lovel=37 hivel=39 amp_velcurve_39=1 sample=../samples/_nsmr/pre_roll/kd14bop/snare_off/cls/kd14bop_p45_cls_014.wav
<region> lovel=40 hivel=43 amp_velcurve_43=1 sample=../samples/_nsmr/pre_roll/kd14bop/snare_off/cls/kd14bop_p45_cls_015.wav
<region> lovel=44 hivel=47 amp_velcurve_47=1 sample=../samples/_nsmr/pre_roll/kd14bop/snare_off/cls/kd14bop_p45_cls_016.wav
<region> lovel=48 hivel=51 amp_velcurve_51=1 sample=../samples/_nsmr/pre_roll/kd14bop/snare_off/cls/kd14bop_p45_cls_017.wav
<region> lovel=52 hivel=55 amp_velcurve_55=1 sample=../samples/_nsmr/pre_roll/kd14bop/snare_off/cls/kd14bop_p45_cls_018.wav
<region> lovel=56 hivel=59 amp_velcurve_59=1 sample=../samples/_nsmr/pre_roll/kd14bop/snare_off/cls/kd14bop_p45_cls_019.wav
<region> lovel=60 hivel=63 amp_velcurve_63=1 sample=../samples/_nsmr/pre_roll/kd14bop/snare_off/cls/kd14bop_p45_cls_020.wav
<region> lovel=64 hivel=67 amp_velcurve_67=1 sample=../samples/_nsmr/pre_roll/kd14bop/snare_off/cls/kd14bop_p45_cls_021.wav
<region> lovel=68 hivel=71 amp_velcurve_71=1 sample=../samples/_nsmr/pre_roll/kd14bop/snare_off/cls/kd14bop_p45_cls_022.wav
<region> lovel=72 hivel=75 amp_velcurve_75=1 sample=../samples/_nsmr/pre_roll/kd14bop/snare_off/cls/kd14bop_p45_cls_023.wav
<region> lovel=76 hivel=79 amp_velcurve_79=1 sample=../samples/_nsmr/pre_roll/kd14bop/snare_off/cls/kd14bop_p45_cls_024.wav
<region> lovel=80 hivel=83 amp_velcurve_83=1 sample=../samples/_nsmr/pre_roll/kd14bop/snare_off/cls/kd14bop_p45_cls_026.wav
<region> lovel=84 hivel=87 amp_velcurve_87=1 sample=../samples/_nsmr/pre_roll/kd14bop/snare_off/cls/kd14bop_p45_cls_027.wav
<region> lovel=88 hivel=91 amp_velcurve_91=1 sample=../samples/_nsmr/pre_roll/kd14bop/snare_off/cls/kd14bop_p45_cls_028.wav
<region> lovel=92 hivel=95 amp_velcurve_95=1 sample=../samples/_nsmr/pre_roll/kd14bop/snare_off/cls/kd14bop_p45_cls_029.wav
<region> lovel=96 hivel=99 amp_velcurve_99=1 sample=../samples/_nsmr/pre_roll/kd14bop/snare_off/cls/kd14bop_p45_cls_030.wav
<region> lovel=100 hivel=103 amp_velcurve_103=1 sample=../samples/_nsmr/pre_roll/kd14bop/snare_off/cls/kd14bop_p45_cls_031.wav
<region> lovel=104 hivel=107 amp_velcurve_107=1 sample=../samples/_nsmr/pre_roll/kd14bop/snare_off/cls/kd14bop_p45_cls_034.wav
<region> lovel=108 hivel=111 amp_velcurve_111=1 sample=../samples/_nsmr/pre_roll/kd14bop/snare_off/cls/kd14bop_p45_cls_036.wav
<region> lovel=112 hivel=115 amp_velcurve_115=1 sample=../samples/_nsmr/pre_roll/kd14bop/snare_off/cls/kd14bop_p45_cls_038.wav
<region> lovel=116 hivel=119 amp_velcurve_119=1 sample=../samples/_nsmr/pre_roll/kd14bop/snare_off/cls/kd14bop_p45_cls_039.wav
<region> lovel=120 hivel=123 amp_velcurve_123=1 sample=../samples/_nsmr/pre_roll/kd14bop/snare_off/cls/kd14bop_p45_cls_040.wav
<region> lovel=124 hivel=127 amp_velcurve_127=1 sample=../samples/_nsmr/pre_roll/kd14bop/snare_off/cls/kd14bop_p45_cls_041.wav
